<svg xmlns="http://www.w3.org/2000/svg" width="26" height="12" viewBox="0 0 988 456">
  <g transform="translate(-52.766489,-173.27138)">
    <g transform="matrix(1.6233766,0,0,1.6233766,-63.129613,-366.1932)">
      <path d="m 64,332.36218 616,0 0,281 -616,0 z" style="fill:#000000;stroke:none" />
      <path d="m 203.28125,394.9375 c -49.41644,0 -65.59375,31.18705 -65.59375,48.4375 l 34.09375,0 c 1.16151,-9.11623 10.68294,-19.59375 32.65625,-19.59375 22.37071,0 31.125,14.06076 31.125,31.84375 l -16.625,0 c -55.54456,0 -86.875,15.39324 -86.875,49.5625 0,24.39973 24.02635,46.125 55.25,46.125 19.66032,0 41.89424,-9.35927 49.1875,-15.3125 l 0.5,11.375 32,0 0,-84 c 0,-42.29747 -16.8851,-68.4375 -65.71875,-68.4375 z m 20.65625,87.3125 12.0625,0 0,8.40625 c 0,17.53782 -17.18701,31.5625 -41.75,31.5625 -14.99665,0 -27.5625,-5.4838 -27.5625,-16.03125 0,-14.51421 11.44674,-23.9375 57.25,-23.9375 z" style="fill:#ffffff;stroke:none" />
      <path d="m 290,547.36218 0,-148.49492 53,0 29.01015,107.87373 L 400,398.86726 l 54,0 0,148.49492 -34.19643,0 0,-113.13252 L 388,547.36218 l -32.46429,0 L 324,434.45799 l 0,112.90419 z" style="fill:#ffffff;stroke:none" />
      <path d="m 579.64286,491.38004 34.28571,0 c -5.08186,28.215 -30.62819,60 -70.80357,60 -50.6166,0 -72.85714,-43.83495 -72.85714,-77.85714 0,-46.11103 29.11045,-78.48215 72.58928,-78.48215 38.19283,0 65.00758,27.73392 70.625,59.82143 l -33.66071,0 c -3.92595,-12.34668 -15.995,-29.01786 -36.96429,-29.01786 -23.62593,0 -39.73214,23.53303 -39.73214,46.96429 0,28.14177 19.17141,47.58929 39.64286,47.58929 18.7124,0 32.40281,-14.5094 36.875,-29.01786 z" style="fill:#ffffff;stroke:none" />
    </g>
  </g>
</svg>