<svg xmlns="http://www.w3.org/2000/svg" width="12" height="12" viewBox="0 0 21.34375 21.34375">
  <path d="M10.547 0C4.672 0 0 4.797 0 10.64c0 5.907 4.672 10.704 10.547 10.704 5.906 0 10.515-4.797 10.515-10.703C21.063 4.798 16.453 0 10.547 0zm0 4.516c4.797 0 8.312 3.046 9.797 6.125-1.485 3.126-5 6.188-9.797 6.188-4.828 0-8.313-3.062-9.797-6.187 1.484-3.078 4.97-6.124 9.797-6.124zm0 .484c-3.125 0-5.672 2.53-5.672 5.64 0 3.157 2.547 5.672 5.672 5.672 3.125 0 5.64-2.515 5.64-5.67 0-3.11-2.515-5.642-5.64-5.642zm0 0" />
</svg>
