<svg xmlns="http://www.w3.org/2000/svg" width="16" height="16" viewBox="0 0 345 345">
  <defs id="defs5226">
    <clipPath clipPathUnits="userSpaceOnUse" id="clipPath9777">
      <path d="m 166.115,350.643 27.139,0 0,22.429 -27.139,0 0,-22.429 z" id="path9779" />
    </clipPath>
  </defs>
  <g transform="translate(-99.07208,523.92157)">
    <g transform="matrix(41.657979,0,0,-41.657979,-6838.1045,14491.678)">
      <g clip-path="url(#clipPath9777)">
        <g transform="translate(190.2762,367.4252)">
          <path d="m -19.966978,-11.414358 0.669445,0 0,3.7672261 -0.669445,-0.8263592 z m 1.769126,3.3779247 -0.669445,-0.8267856 0,-5.2766741 0.669445,0 z m 0.430661,-4.4776047 1.147437,0 0,0.669445 -1.147437,0 z m -1.000756,5.5210005 -0.09935,-0.1223762 0,-1.0638629 0.619556,0.7649579 z m -1.629692,-3.0760345 0,1.0638626 -1.950771,-2.4091486 0.861324,0 z m 0.430661,-5.170928 0.669445,0 0,2.2953 -0.669445,0 z m -2.630022,2.725962 3.299467,0 0,0.669445 -3.299467,0 z m 3.729703,-2.725962 1.673612,0 0,0.669445 -1.673612,0 z m -2.199361,0.669445 0.669445,0 0,-0.669445 -0.669445,0 z" style="fill:#182b45;fill-opacity:1;fill-rule:nonzero;stroke:none" id="path9783"/>
        </g>
      </g>
    </g>
  </g>
</svg>
