<svg xmlns="http://www.w3.org/2000/svg" xmlns:xlink="http://www.w3.org/1999/xlink" width="50" height="12" viewBox="0 0 100 24">
  <title>Discovery Channel logo</title>
  <g transform="translate(0,-1002.3622)">
    <g transform="matrix(0.53321387,0,0,-0.53321387,-7.2649509,1064.687)">
      <path
        style="fill:#000000;fill-opacity:1;fill-rule:nonzero;stroke:none;stroke-width:1.33333325"
        transform="matrix(0.75000002,0,0,-0.75000002,-162.58642,333.02988)"
        d="m 237.39258,291.29297 v 50.20312 h 14.84765 c 9.04167,0 12.9375,-3.9694 12.9375,-13.52539 v -23.15234 c 0,-9.48307 -3.89583,-13.52539 -12.9375,-13.52539 z m 57.98047,5.80664 c -8.45312,0 -12.57032,3.74741 -12.57032,11.32031 0,6.61459 4.41016,9.11328 11.2461,14.48047 2.79297,2.1302 3.89648,3.45313 3.89648,7.20313 0,2.79297 -0.66081,4.04296 -2.57226,4.04296 -2.27864,0 -2.35352,-1.47135 -2.35352,-4.55859 v -6.09961 h -10.36328 v 5.36524 c 0,9.77473 3.45443,13.30468 13.23047,13.30468 8.60027,0 12.7168,-3.82226 12.7168,-12.64258 0,-6.10155 -2.27995,-10.07031 -7.64454,-14.03906 -4.1901,-3.16146 -7.86523,-4.77865 -7.86523,-7.64453 0,-1.83724 0.58919,-2.7207 2.2793,-2.7207 1.47005,0 2.35156,0.95443 2.35156,2.35156 v 2.20508 1.83789 h 10.36328 v -2.86719 c 0,-8.15885 -3.89452,-11.53906 -12.71484,-11.53906 z m 29.57617,0 c -10.07032,0 -12.86524,4.55598 -12.86524,14.03906 v 16.98047 c 0,9.55468 2.79492,14.03906 12.86524,14.03906 10.06901,0 12.86328,-4.48438 12.86328,-14.03906 v -4.33789 h -10.51172 v 5.80664 c 0,3.01303 -0.0729,4.55859 -2.35156,4.55859 -2.27995,0 -2.35352,-1.47135 -2.35352,-4.55859 v -19.91992 c 0,-3.01301 0.0736,-4.55664 2.35352,-4.55664 2.27864,0 2.35156,1.47071 2.35156,4.55664 v 5.80859 h 10.51172 v -4.33789 c 0,-9.55469 -2.79427,-14.03906 -12.86328,-14.03906 z m 28.93164,0 c -10.07032,0 -12.86328,4.55598 -12.86328,14.03906 v 16.98047 c 0,9.55468 2.79296,14.03906 12.86328,14.03906 10.069,0 12.86328,-4.48438 12.86328,-14.03906 v -16.98047 c 0,-9.55469 -2.79428,-14.03906 -12.86328,-14.03906 z m 57.76562,0 c -10.07032,0 -12.86328,4.55598 -12.86328,14.03906 v 16.98047 c 0,9.55468 2.79296,14.03906 12.86328,14.03906 10.07031,0 12.86329,-4.48438 12.86329,-14.03906 v -4.33789 h -10.36329 v 5.80664 c 0,2.94141 -0.0742,4.55859 -2.5,4.55859 -2.42573,0 -2.5,-1.47135 -2.5,-4.55859 v -8.30469 h 15.36329 v -10.14453 c 0,-9.55469 -2.79298,-14.03906 -12.86329,-14.03906 z m 32.78711,0.14648 c -3.08593,0 -5.21874,1.17578 -6.6875,2.86719 v -2.35156 h -9.77734 v 43.73437 h 10.36523 v -31.82812 c 0,-3.01301 0.0729,-4.55664 2.35157,-4.55664 2.27996,0 2.35156,1.47071 2.35156,4.55664 v 8.96875 h 10.36523 v -8.08594 c 0,-8.67317 -1.6914,-13.30469 -8.96875,-13.30469 z m -175.50586,0.51563 v 43.73437 h 10.36329 v -43.73437 z m 101.48047,0 v 17.71484 c 0,11.319 2.4974,20.13932 6.91016,26.01953 h 11.61328 c 4.41015,-5.88021 6.90625,-14.70053 6.90625,-26.01953 v -17.71484 h -10.36328 v 16.24414 c 0,8.01172 -0.8086,14.4069 -2.35156,19.11133 -1.47006,-4.70443 -2.35157,-11.09961 -2.35157,-19.11133 v -16.24414 z m 86.5,0 v 15.72851 c 0,9.9974 2.05859,18.45053 6.91016,26.97657 h -6.91016 v 6.10156 h 16.2461 c 7.64453,-11.83463 9.1875,-21.68359 9.1875,-33.07813 v -15.72851 h -10.36328 v 16.16992 c 0,8.38021 -0.88413,15.58398 -2.35547,21.0957 -1.46875,-5.73177 -2.35157,-12.86393 -2.35157,-21.0957 v -16.16992 z m -208.41601,3.08594 h 1.83789 c 3.82162,0 3.60156,1.76367 3.60156,5.95507 v 19.1836 c 0,4.26301 0.22006,5.95508 -3.60156,5.95508 h -1.83789 z m 105.38867,4.26367 c 2.27729,0 2.35156,1.47071 2.35156,4.55664 v 19.91992 c 0,3.01303 -0.0742,4.55859 -2.35156,4.55859 -2.2786,0 -2.35156,-1.47135 -2.35156,-4.55859 v -19.91992 c 0,-3.01301 0.0729,-4.55664 2.35156,-4.55664 z m 57.76562,0 c 2.42574,0 2.5,1.47005 2.5,4.85156 v 3.30664 h -5 v -3.30664 c 0,-3.38151 0.0742,-4.85156 2.5,-4.85156 z" />
    </g>
  </g>
</svg>