<svg xmlns:svg="http://www.w3.org/2000/svg" xmlns="http://www.w3.org/2000/svg" viewBox="0 0 300 75" width="48" height="12">
  <g transform="translate(-224.9993,-480.22792)">
    <g transform="matrix(0.99999531,0,0,0.99999531,224.99929,480.22941)">
      <path
         d="m 12.506594,-8.9265083e-5 64.405588,0 L 74.164851,20.858936 l -63.912711,0 L 12.506594,-8.9265083e-5 Z M 9.2633441,28.468099 l 64.4086309,0 -2.114502,16.912971 -39.603549,0 -1.265659,8.737911 39.743502,0 -2.397449,19.72115 -64.1256829,0 L 9.2633441,28.468099 z m 283.5592259,45.372032 -23.81629,0 5.21476,-45.372032 24.09923,0 L 292.82257,73.840131 z m -47.91552,0 -23.81629,0 5.21172,-45.372032 24.10227,0 L 244.90705,73.840131 z m -17.75573,-52.981195 72.01475,0 C 302.40932,6.9062684 295.64292,-8.9265083e-5 288.59661,-8.9265083e-5 c -8.33935,0 -28.68421,0.0030424451 -58.77098,0.0030424451 L 227.15132,20.858936 z m -73.85239,7.609163 70.18624,0 -1.55165,7.892111 c 0,0 -1.5486,9.02086 -12.40102,9.02086 l -34.38879,0 -3.24021,28.459061 -23.81932,0 L 153.29893,28.468099 z m -76.511488,0 c 0,0 -0.01521,4.438933 -0.01521,6.766405 0,4.578885 4.578885,10.146566 11.558262,10.146566 4.368955,0 35.447566,0.03042 35.447566,0.03042 l -1.1318,8.707487 -47.988529,0 -2.543487,19.72115 56.239656,0 c 4.72188,0 15.74163,-3.81523 17.61882,-15.057077 0.003,-0.01217 2.19969,-18.492 2.25445,-19.179594 0.27991,-3.593131 -1.90761,-11.135361 -11.66779,-11.135361 L 76.787442,28.468099 Z M 93.615223,-8.9265083e-5 C 87.977567,-8.9265083e-5 78.04093,6.4255615 78.04093,20.858936 l 146.29004,0 C 226.30248,-0.5629422 211.2241,-8.9265083e-5 211.2241,-8.9265083e-5 l -117.608877,0"
         id="path24289"
         style="fill:#ef2c30;fill-opacity:1;fill-rule:nonzero;stroke:none" />
    </g>
  </g>
</svg>