<svg width="24" height="12" viewBox="0 0 400 200" xmlns="http://www.w3.org/2000/svg">
	<g transform="translate(-314.29 -339.66)">
		<path class="cls-1" d="m379.9 415.46h-19.957a24.013 24.013 0 0 0-10.494 1.867v-42.039h-31.159v128.76h31.095v-51.953a8.3048 8.3048 0 0 1 8.3691-8.3048h18.09a8.3048 8.3048 0 0 1 8.3691 8.3048v51.953h31.159v-56.009c0-23.562-15.708-32.575-35.408-32.575zm299.23 0v51.953a8.3048 8.3048 0 0 1-8.3048 8.3048h-18.155a8.3048 8.3048 0 0 1-8.3691-8.3048v-51.953h-31.095v54.528c0 22.339 14.099 34.056 35.472 34.056h30.451c19.313 0 31.159-13.841 31.159-33.863v-54.721zm-175.62 51.953a8.3048 8.3048 0 0 1-8.3691 8.3048h-18.09a8.3048 8.3048 0 0 1-8.3691-8.3048v-51.953h-31.095v54.528c0 22.339 14.292 34.056 35.215 34.056h30.451c19.313 0 31.159-13.841 31.159-33.863v-54.721h-30.901zm54.85 36.631h31.159v-128.76h-31.159z" fill="#3dbb3d" stroke-width="6.4378"/>
	</g>
</svg>
