<svg xmlns="http://www.w3.org/2000/svg" xmlns:xlink="http://www.w3.org/1999/xlink" viewBox="0 0 98 84" width="14" height="12">
	<g style="fill:#6b9d34" transform="translate(2,3)">
		<path id="I"
			d="m 93.4079,19.8228 c 0,-0.396 -0.323,-0.72 -0.726,-0.72 h -7.214 c -0.394,0 -0.721,0.324 -0.721,0.72 v 37.543 c 0,0.401 0.327,0.727 0.721,0.727 h 7.214 c 0.403,0 0.726,-0.326 0.726,-0.727 z" />
		<path id="Q"
			d="m 28.7311,51.9253 c 0,0.634 -0.132,1.382 -0.58,1.86 -0.56,0.594 -1.525,0.635 -2.287,0.605 -0.956,0.036 -1.666,-0.138 -2.133,-0.517 -0.548,-0.322 -0.824,-0.972 -0.824,-1.948 v -26.741 c 0,-0.958 0.276,-1.618 0.824,-1.977 0.467,-0.308 1.177,-0.467 2.133,-0.467 0.687,0 1.545,0.041 2.141,0.427 0.658,0.417 0.718,1.315 0.726,2.017 z m 8.768,6.423 v -0.006 h -3.126 c -0.829,0 -1.273,-0.121 -1.329,-0.381 1.311,-0.484 2.374,-1.188 3.194,-2.114 0.775,-0.882 1.162,-2.014 1.162,-3.386 v -27.759 c 0,-1.34 -0.338,-2.431 -1.02,-3.284 -0.676,-0.881 -1.575,-1.567 -2.689,-2.058 -2.398,-0.923 -5.028,-1.367 -7.915,-1.33 -1.33,0 -2.66,0.092 -4,0.271 -1.354,0.238 -2.571,0.589 -3.663,1.059 -1.118,0.486 -2.013,1.169 -2.692,2.058 -0.791,0.847 -1.184,1.944 -1.184,3.278 v 27.77 c 0.058,2.499 1.362,4.225 3.921,5.175 1.11,0.489 2.344,0.839 3.723,1.053 1.35,0.271 2.696,0.406 4.049,0.406 1.018,0 1.981,-0.079 2.891,-0.243 0.056,1.08 0.395,1.976 1.04,2.686 0.611,0.738 1.923,1.127 3.923,1.163 h 3.715 c 0.402,0 0.727,-0.324 0.727,-0.727 v -2.906 c 0,-0.398 -0.325,-0.725 -0.727,-0.725" />
		<path id="idot"
			d="M 8.277,19.103 H 1.06 c -0.397,0 -0.722,0.323 -0.722,0.72 v 7.229 c 0,0.404 0.324,0.728 0.722,0.728 h 7.217 c 0.398,0 0.721,-0.324 0.721,-0.728 v -7.229 c 0,-0.397 -0.323,-0.72 -0.721,-0.72" />
		<use xlink:href="#I" transform="translate(-41.8774)" />
		<path id="istroke"
			d="M 8.277,30.8667 H 1.06 c -0.397,0 -0.722,0.325 -0.722,0.727 v 25.775 c 0,0.398 0.325,0.724 0.722,0.724 h 7.217 c 0.398,0 0.721,-0.326 0.721,-0.726 v -25.773 c 0,-0.402 -0.323,-0.727 -0.721,-0.727" />
		<path id="Y"
			d="m 80.7878,20.0728 -0.003,-0.003 c 0.029,-0.079 0.048,-0.162 0.048,-0.248 0,-0.375 -0.289,-0.678 -0.652,-0.713 l 0.003,-0.004 h -0.035 c -0.014,0 -0.023,-0.002 -0.035,-0.002 h -7.335 c -0.295,0 -0.543,0.177 -0.657,0.429 h -0.002 v 0.003 c -0.005,0.017 -0.01,0.035 -0.016,0.047 0,0 -3.796,11.871 -4.158,13.896 -0.364,-2.025 -4.154,-13.896 -4.154,-13.896 -0.008,-0.012 -0.008,-0.03 -0.023,-0.047 v -0.003 h -0.002 c -0.112,-0.252 -0.357,-0.429 -0.654,-0.429 h -7.334 c -0.015,0 -0.023,0.002 -0.038,0.002 h -0.034 l 10e-4,0.004 c -0.36,0.035 -0.649,0.338 -0.649,0.713 0,0.086 0.021,0.169 0.046,0.248 l -0.005,0.003 8.535,23.693 v 13.577 0.026 c 0,0.398 0.323,0.721 0.719,0.721 h 3.064 1.056 3.065 c 0.398,0 0.723,-0.323 0.723,-0.721 0,-0.01 -0.004,-0.019 -0.004,-0.026 v -13.577 z" />
		<path id="cap"
			d="m 91.738,8.9536 c -0.704,-1.49 -1.91,-2.987 -3.262,-3.901 -4.978,-3.366 -31.153,-4.578 -35.794,-4.65 -1.81,-0.028 -3.715,-0.037 -5.795,-0.035 H 46.79 c -0.031,0 -4.081,0.007 -5.89,0.035 -4.643,0.072 -30.817,1.284 -35.795,4.65 -1.35,0.914 -2.559,2.411 -3.261,3.901 -1.046,2.251 -1.443,5.376 -1.443,7.156 l 8.713,-0.013 c 0.026,-0.615 0.31,-2.312 1.019,-3.439 1.136,-1.802 3.292,-2.381 5.253,-2.665 7.931,-1.15 14.984,-1.753 22.416,-1.975 2.958,-0.085 8.957,-0.117 8.988,-0.117 0.034,0 0.064,-0.005 0.097,-0.005 2.967,-0.003 5.929,0.037 8.892,0.122 7.434,0.222 14.483,0.825 22.413,1.975 1.964,0.284 4.117,0.863 5.254,2.665 0.714,1.127 0.996,2.824 1.025,3.439 l 8.709,0.013 c 0,-1.78 -0.398,-4.905 -1.442,-7.156" />
		<use xlink:href="#cap" transform="matrix(1,0,0,-1,0,77.30181)" />
	</g>
</svg>
