<svg xmlns="http://www.w3.org/2000/svg" xmlns:xlink="http://www.w3.org/1999/xlink" width="18" height="12" viewBox="0 0 300 200">
   <defs
   id="defs3051"><linearGradient
     id="linearGradient4228"><stop
       style="stop-color:#ffffff;stop-opacity:1;"
       offset="0"
       id="stop4230" /><stop
       style="stop-color:#ffffff;stop-opacity:0;"
       offset="1"
       id="stop4232" /></linearGradient><linearGradient
     id="linearGradient3975"><stop
       style="stop-color:#ffffff;stop-opacity:1;"
       offset="0"
       id="stop3977" /><stop
       style="stop-color:#ffffff;stop-opacity:0;"
       offset="1"
       id="stop3979" /></linearGradient><linearGradient
     id="linearGradient3161"><stop
       style="stop-color:#ffffff;stop-opacity:1;"
       offset="0"
       id="stop3163" /><stop
       style="stop-color:#ffffff;stop-opacity:0;"
       offset="1"
       id="stop3165" /></linearGradient><linearGradient
     id="linearGradient3148"><stop
       style="stop-color:#ffffff;stop-opacity:1;"
       offset="0"
       id="stop3150" /><stop
       style="stop-color:#ffffff;stop-opacity:0;"
       offset="1"
       id="stop3152" /></linearGradient><linearGradient
     id="linearGradient5619"
     ><stop
       style="stop-color:#ffffff;stop-opacity:1"
       offset="0"
       id="stop5621" /><stop
       style="stop-color:#ffffff;stop-opacity:0;"
       offset="1"
       id="stop5623" /></linearGradient><linearGradient
     id="linearGradient4063"><stop
       style="stop-color:#ff0000;stop-opacity:1;"
       offset="0"
       id="stop4065" /><stop
       style="stop-color:#ff0000;stop-opacity:0;"
       offset="1"
       id="stop4067" /></linearGradient><linearGradient
     id="linearGradient3346"><stop
       style="stop-color:#000000;stop-opacity:1;"
       offset="0"
       id="stop3348" /><stop
       style="stop-color:#000000;stop-opacity:0;"
       offset="1"
       id="stop3350" /></linearGradient><linearGradient
          id="linearGradient3300"><stop
       style="stop-color:#000000;stop-opacity:1;"
       offset="0"
       id="stop3302" /><stop
       style="stop-color:#000000;stop-opacity:0;"
       offset="1"
       id="stop3304" /></linearGradient><linearGradient
     id="linearGradient3114"><stop
       style="stop-color:#000000;stop-opacity:1;"
       offset="0"
       id="stop3116" /><stop
       style="stop-color:#000000;stop-opacity:0;"
       offset="1"
       id="stop3118" /></linearGradient><linearGradient
     id="linearGradient6056"><stop
       style="stop-color:#000000;stop-opacity:1;"
       offset="0"
       id="stop6058" /><stop
       style="stop-color:#000000;stop-opacity:0;"
       offset="1"
       id="stop6060" /></linearGradient><linearGradient
     id="linearGradient6004"><stop
       style="stop-color:#ffffff;stop-opacity:1;"
       offset="0"
       id="stop6006" /><stop
       style="stop-color:#ffffff;stop-opacity:0;"
       offset="1"
       id="stop6008" /></linearGradient><linearGradient
     id="linearGradient5816"><stop
       style="stop-color:#ffffff;stop-opacity:1;"
       offset="0"
       id="stop5818" /><stop
       style="stop-color:#cccccc;stop-opacity:1"
       offset="1"
       id="stop5820" /></linearGradient><linearGradient
     id="linearGradient4579"
     ><stop
       style="stop-color:#808080;stop-opacity:1;"
       offset="0"
       id="stop4581" /></linearGradient><linearGradient
     id="linearGradient4541"><stop
       style="stop-color:#808080;stop-opacity:1;"
       offset="0"
       id="stop4543" /><stop
       style="stop-color:#808080;stop-opacity:0;"
       offset="1"
       id="stop4545" /></linearGradient><linearGradient
     id="linearGradient4525"
     ><stop
       style="stop-color:#808080;stop-opacity:1;"
       offset="0"
       id="stop4527" /><stop
       style="stop-color:#808080;stop-opacity:0;"
       offset="1"
       id="stop4529" /></linearGradient><marker
     orient="auto"
     refY="0"
     refX="0"
     id="Arrow1Mstart"
     style="overflow:visible"><path
       id="path3901"
       d="M 0,0 5,-5 -12.5,0 5,5 0,0 z"
       style="fill-rule:evenodd;stroke:#000000;stroke-width:1pt"
       transform="matrix(0.4,0,0,0.4,4,0)"
        /></marker><radialGradient
     xlink:href="#linearGradient5816"
     id="radialGradient5822"
     cx="122.38919"
     cy="151.32779"
     fx="122.38919"
     fy="151.32779"
     r="144.16556"
     gradientTransform="matrix(0.00465378,-1.218851,1.303395,0.0048974,-46.809447,291.68307)"
     gradientUnits="userSpaceOnUse" /><linearGradient
     xlink:href="#linearGradient6004"
     id="linearGradient6010"
     x1="151.5"
     y1="7.500001"
     x2="150.75"
     y2="104"
     gradientUnits="userSpaceOnUse"
     gradientTransform="translate(0,1)" /><linearGradient
     xlink:href="#linearGradient6056"
     id="linearGradient6062"
     x1="60.25"
     y1="196.25"
     x2="60.5"
     y2="164"
     gradientUnits="userSpaceOnUse" /><linearGradient
          xlink:href="#linearGradient6056"
     id="linearGradient6066"
     gradientUnits="userSpaceOnUse"
     x1="60.25"
     y1="196.25"
     x2="60.5"
     y2="164"
     gradientTransform="matrix(-0.99227654,0,0,0.9992527,302.70108,0.0998141)" /><linearGradient
          xlink:href="#linearGradient3114"
     id="linearGradient3120"
     x1="87"
     y1="124.25"
     x2="78.875"
     y2="137"
     gradientUnits="userSpaceOnUse" /><linearGradient
          xlink:href="#linearGradient3114"
     id="linearGradient3134"
     gradientUnits="userSpaceOnUse"
     x1="87"
     y1="124.25"
     x2="78.875"
     y2="137"
     gradientTransform="matrix(-0.99138924,0,0,1,302.60028,-0.02496843)" /><linearGradient
          xlink:href="#linearGradient3300"
     id="linearGradient3306"
     x1="83.438606"
     y1="70.08979"
     x2="103.59115"
     y2="61.604507"
     gradientUnits="userSpaceOnUse" /><linearGradient
          xlink:href="#linearGradient3300"
     id="linearGradient3310"
     gradientUnits="userSpaceOnUse"
     x1="83.438606"
     y1="70.08979"
     x2="103.59115"
     y2="61.604507"
     gradientTransform="matrix(-1,0,0,1,303.47186,-0.01669597)" /><linearGradient
          xlink:href="#linearGradient3346"
     id="linearGradient3352"
     x1="43.877792"
     y1="113.25008"
     x2="56.14743"
     y2="124.93806"
     gradientUnits="userSpaceOnUse" /><filter
          id="filter4256"
     x="-0.15985119"
     width="1.3197024"
     y="-0.33295146"
     height="1.6659029"
     color-interpolation-filters="sRGB"><feGaussianBlur
              stdDeviation="8.2042578"
       id="feGaussianBlur4258" /></filter><clipPath
     clipPathUnits="userSpaceOnUse"
     id="clipPath4264"><path
       style="fill:#fab802;fill-opacity:1;filter:url(#filter4256)"
       d="m -609.637,-150.204 h 93.234 l -76.873,-53.554 c -17.761,-11.384 -37.729,-4.723 -44.94,14.167 -6.11,21.625 9.149,39.387 28.579,39.387"
       id="path4266"
        /></clipPath><clipPath
     clipPathUnits="userSpaceOnUse"
     id="clipPath4268"><path
       style="fill:#fab802;fill-opacity:1;filter:url(#filter4256)"
       d="m -609.637,-150.204 h 93.234 l -76.873,-53.554 c -17.761,-11.384 -37.729,-4.723 -44.94,14.167 -6.11,21.625 9.149,39.387 28.579,39.387"
       id="path4270"
        /></clipPath><filter
          id="filter4312"
     x="-0.17761242"
     width="1.3552248"
     y="-0.36994606"
     height="1.7398921"
     color-interpolation-filters="sRGB"><feGaussianBlur
              stdDeviation="9.115842"
       id="feGaussianBlur4314" /></filter><clipPath
     clipPathUnits="userSpaceOnUse"
     id="clipPath4318"><path
       id="path4320"
       d="m -232.85275,319.56921 h 93.234 l -76.873,-53.554 c -17.761,-11.384 -37.729,-4.723 -44.94,14.167 -6.11,21.625 9.149,39.387 28.579,39.387"
       style="fill:#fab802;fill-opacity:1;filter:url(#filter4312)"
        /></clipPath><clipPath
     clipPathUnits="userSpaceOnUse"
     id="clipPath4322"><path
       id="path4324"
       d="m -232.85275,319.56921 h 93.234 l -76.873,-53.554 c -17.761,-11.384 -37.729,-4.723 -44.94,14.167 -6.11,21.625 9.149,39.387 28.579,39.387"
       style="fill:#fab802;fill-opacity:1;filter:url(#filter4312)"
        /></clipPath><filter
          id="filter3850"
     x="-0.17761242"
     width="1.3552248"
     y="-0.36994606"
     height="1.7398921"
     color-interpolation-filters="sRGB"><feGaussianBlur
              stdDeviation="9.115842"
       id="feGaussianBlur3852" /></filter><clipPath
     clipPathUnits="userSpaceOnUse"
     id="clipPath3856"><path
       style="fill:#fab802;fill-opacity:1;filter:url(#filter3850)"
       d="m 364.45602,175.05343 h 93.234 l -76.873,-53.554 c -17.761,-11.384 -37.729,-4.723 -44.94,14.167 -6.11,21.625 9.149,39.387 28.579,39.387"
       id="path3858" /></clipPath><clipPath
     clipPathUnits="userSpaceOnUse"
     id="clipPath3860"><path
       style="fill:#fab802;fill-opacity:1;filter:url(#filter3850)"
       d="m 364.45602,175.05343 h 93.234 l -76.873,-53.554 c -17.761,-11.384 -37.729,-4.723 -44.94,14.167 -6.11,21.625 9.149,39.387 28.579,39.387"
       id="path3862" /></clipPath><filter
          id="filter3879"
     x="-0.25812235"
     width="1.5162446"
     y="-0.22425538"
     height="1.4485108"
     color-interpolation-filters="sRGB"><feGaussianBlur
              stdDeviation="10.359834"
       id="feGaussianBlur3881" /></filter><clipPath
     clipPathUnits="userSpaceOnUse"
     id="clipPath3885"><path
       style="fill:#fe4703;fill-opacity:1;filter:url(#filter3879)"
       d="m 366.66202,62.119434 c -11.382,10.28 -15.527,33.572 4.993,47.187996 l 81.863,56.028 -39.693,-90.715996 c -8.317,-21.407 -31.07,-26.076 -47.163,-12.5"
       id="path3887" /></clipPath><clipPath
     clipPathUnits="userSpaceOnUse"
     id="clipPath3889"><path
       style="fill:#fe4703;fill-opacity:1;filter:url(#filter3879)"
       d="m 366.66202,62.119434 c -11.382,10.28 -15.527,33.572 4.993,47.187996 l 81.863,56.028 -39.693,-90.715996 c -8.317,-21.407 -31.07,-26.076 -47.163,-12.5"
       id="path3891" /></clipPath><filter
          id="filter3917"
     x="-0.40304434"
     width="1.8060887"
     y="-0.17087542"
     height="1.3417507"
     color-interpolation-filters="sRGB"><feGaussianBlur
              stdDeviation="9.7514371"
       id="feGaussianBlur3919" /></filter><clipPath
     clipPathUnits="userSpaceOnUse"
     id="clipPath3923"><path
       id="path3925"
       d="m 169.12902,-172.98757 c -13.308,0.27 -33.289,16.079 -24.395,40.218 l 41.052,96.585001 14.424,-101.589001 c 3.338,-25.243 -15.809,-36.896 -31.081,-35.214"
       style="fill:#dc0002;fill-opacity:1;filter:url(#filter3917)"
        /></clipPath><clipPath
     clipPathUnits="userSpaceOnUse"
     id="clipPath3927"><path
       id="path3929"
       d="m 169.12902,-172.98757 c -13.308,0.27 -33.289,16.079 -24.395,40.218 l 41.052,96.585001 14.424,-101.589001 c 3.338,-25.243 -15.809,-36.896 -31.081,-35.214"
       style="fill:#dc0002;fill-opacity:1;filter:url(#filter3917)"
        /></clipPath><filter
          id="filter3935"
     x="-0.40277416"
     width="1.8055483"
     y="-0.17092402"
     height="1.3418481"
     color-interpolation-filters="sRGB"><feGaussianBlur
              stdDeviation="9.7687359"
       id="feGaussianBlur3937" /></filter><clipPath
     clipPathUnits="userSpaceOnUse"
     id="clipPath3941"><path
       id="path3943"
       d="m 318.61702,-117.64857 h 7.763 c 0,0 4.145,0 4.708,1.951 -3.054,2.489 -11.368,2.8 -10.266,16.093005 l 13.051,87.405996 40.771,-96.839001 c 8.341,-21.622 -9.165,-39.68 -24.692,-40.232 -0.726,-0.053 -1.453,-0.095 -2.206,-0.095 -13.939,0 -29.909,10.106 -29.129,31.716"
       style="fill:#4002ad;fill-opacity:1;filter:url(#filter3935)"
        /></clipPath><clipPath
     clipPathUnits="userSpaceOnUse"
     id="clipPath3945"><path
       id="path3947"
       d="m 318.61702,-117.64857 h 7.763 c 0,0 4.145,0 4.708,1.951 -3.054,2.489 -11.368,2.8 -10.266,16.093005 l 13.051,87.405996 40.771,-96.839001 c 8.341,-21.622 -9.165,-39.68 -24.692,-40.232 -0.726,-0.053 -1.453,-0.095 -2.206,-0.095 -13.939,0 -29.909,10.106 -29.129,31.716"
       style="fill:#4002ad;fill-opacity:1;filter:url(#filter3935)"
        /></clipPath><filter
          id="filter3953"
     x="-0.25864801"
     width="1.517296"
     y="-0.22386014"
     height="1.4477203"
     color-interpolation-filters="sRGB"><feGaussianBlur
              stdDeviation="10.294022"
       id="feGaussianBlur3955" /></filter><clipPath
     clipPathUnits="userSpaceOnUse"
     id="clipPath3959"><path
       id="path3961"
       d="m 206.78968,-116.61351 -38.564,89.628 81.836,-56.324 c 18.866,-13.348 15.824,-34.689 5.263,-45.238 -4.428,-4.965 -12.555,-8.8 -21.165,-8.8 -10.174,-0.002 -21.059,5.381 -27.37,20.734"
       style="fill:#0f56d4;fill-opacity:1;filter:url(#filter3953)"
        /></clipPath><clipPath
     clipPathUnits="userSpaceOnUse"
     id="clipPath3963"><path
       id="path3965"
       d="m 206.78968,-116.61351 -38.564,89.628 81.836,-56.324 c 18.866,-13.348 15.824,-34.689 5.263,-45.238 -4.428,-4.965 -12.555,-8.8 -21.165,-8.8 -10.174,-0.002 -21.059,5.381 -27.37,20.734"
       style="fill:#0f56d4;fill-opacity:1;filter:url(#filter3953)"
        /></clipPath><filter
          id="filter3971"
     x="-0.17776179"
     width="1.3555236"
     y="-0.36929974"
     height="1.7385995"
     color-interpolation-filters="sRGB"><feGaussianBlur
              stdDeviation="9.0584613"
       id="feGaussianBlur3973" /></filter><clipPath
     clipPathUnits="userSpaceOnUse"
     id="clipPath3977"><path
       id="path3979"
       d="m 133.021,-88.757999 -76.856,53.554 h 94.632 c 19.415,0 31.89,-19.97 26.345,-38.296 -3.714,-11.518 -14.707,-20.56 -27.463,-20.573 -5.369,10e-4 -11.062,1.615 -16.658,5.315"
       style="fill:#34d201;fill-opacity:1;filter:url(#filter3971)"
        /></clipPath><clipPath
     clipPathUnits="userSpaceOnUse"
     id="clipPath3981"><path
       id="path3983"
       d="m 133.021,-88.757999 -76.856,53.554 h 94.632 c 19.415,0 31.89,-19.97 26.345,-38.296 -3.714,-11.518 -14.707,-20.56 -27.463,-20.573 -5.369,10e-4 -11.062,1.615 -16.658,5.315"
       style="fill:#34d201;fill-opacity:1;filter:url(#filter3971)"
        /></clipPath><linearGradient
          xlink:href="#linearGradient3148"
     id="linearGradient3154"
     x1="96.608467"
     y1="24.21624"
     x2="89.890945"
     y2="50.290802"
     gradientUnits="userSpaceOnUse"
     gradientTransform="matrix(1,0,0,1.2142857,0,-5.420318)" /><linearGradient
          xlink:href="#linearGradient3161"
     id="linearGradient3167"
     x1="119.76621"
     y1="0.26299909"
     x2="119.32426"
     y2="73.978882"
     gradientUnits="userSpaceOnUse"
     gradientTransform="translate(0,1)" /><linearGradient
          xlink:href="#linearGradient3975"
     id="linearGradient3981"
     x1="184.55487"
     y1="0.086222015"
     x2="182.25677"
     y2="78.928635"
     gradientUnits="userSpaceOnUse"
     gradientTransform="translate(0,1)" /><linearGradient
          xlink:href="#linearGradient3148"
     id="linearGradient3986"
     gradientUnits="userSpaceOnUse"
     gradientTransform="matrix(-1,0,0,1.2142857,303.64426,-5.243541)"
     x1="96.608467"
     y1="24.21624"
     x2="92.630981"
     y2="50.290802" /><linearGradient
          xlink:href="#linearGradient4228"
     id="linearGradient4234"
     x1="20.682875"
     y1="-0.26733238"
     x2="124.73264"
     y2="149.69463"
     gradientUnits="userSpaceOnUse"
     gradientTransform="matrix(0.98885714,0,0,0.98787914,1.36326,2.6893444)" /><linearGradient
          xlink:href="#linearGradient4228"
     id="linearGradient4238"
     gradientUnits="userSpaceOnUse"
     gradientTransform="matrix(-0.9827629,0,0,0.98787914,300.94812,2.9393444)"
     x1="20.682875"
     y1="-0.26733238"
     x2="120.73544"
     y2="146.11571" /><linearGradient
          xlink:href="#linearGradient3148"
     id="linearGradient4242"
     gradientUnits="userSpaceOnUse"
     gradientTransform="matrix(1.4402182,0.01987396,-0.16201165,1.2226492,-86.665183,25.339185)"
     x1="96.608467"
     y1="24.21624"
     x2="89.890945"
     y2="50.290802" /><linearGradient
          xlink:href="#linearGradient3148"
     id="linearGradient4246"
     gradientUnits="userSpaceOnUse"
     gradientTransform="matrix(-1.4402182,0.01987396,0.16201165,1.2226492,389.01552,25.589185)"
     x1="96.608467"
     y1="24.21624"
     x2="89.890945"
     y2="50.290802" /><linearGradient
          xlink:href="#linearGradient3148-2"
     id="linearGradient4242-1"
     gradientUnits="userSpaceOnUse"
     gradientTransform="matrix(1.4402182,0.01987396,-0.16201165,1.2226492,-86.665183,24.339185)"
     x1="96.608467"
     y1="24.21624"
     x2="89.890945"
     y2="50.290802" /><linearGradient
          id="linearGradient3148-2"><stop
       style="stop-color:#ffffff;stop-opacity:1;"
       offset="0"
       id="stop3150-6" /><stop
       style="stop-color:#ffffff;stop-opacity:0;"
       offset="1"
       id="stop3152-0" /></linearGradient><linearGradient
     y2="50.290802"
     x2="89.890945"
     y1="24.21624"
     x1="96.608467"
     gradientTransform="matrix(1.6725876,0.33339416,-0.38726719,1.1289114,-119.5788,54.760599)"
     gradientUnits="userSpaceOnUse"
     id="linearGradient4263"
     xlink:href="#linearGradient3148-2"
      /><linearGradient
          xlink:href="#linearGradient3148-2"
     id="linearGradient4284"
     x1="-70.25"
     y1="104.75"
     x2="127"
     y2="166.75"
     gradientUnits="userSpaceOnUse"
     gradientTransform="translate(0,1)" /><linearGradient
          xlink:href="#linearGradient3148-2"
     id="linearGradient4290"
     gradientUnits="userSpaceOnUse"
     gradientTransform="matrix(-1.6725876,0.33339416,0.38726719,1.1289114,422.21695,55.260599)"
     x1="96.608467"
     y1="24.21624"
     x2="89.890945"
     y2="50.290802" /><linearGradient
          xlink:href="#linearGradient3148-2"
     id="linearGradient4292"
     gradientUnits="userSpaceOnUse"
     x1="-70.25"
     y1="104.75"
     x2="127"
     y2="166.75"
     gradientTransform="matrix(-1,0,0,1,302.63815,1.5)" /></defs>
<path
   style="fill:url(#radialGradient5822);fill-opacity:1;stroke:none"
   d="m 119.78125,8.1875 c -20.356079,0 -36.875,16.527082 -36.875,36.90625 0,1.241996 0.06778,2.477033 0.1875,3.6875 -4.928377,-2.447217 -10.50077,-3.8125 -16.375,-3.8125 -20.356079,0 -36.84375,16.495832 -36.84375,36.875 0,9.799559 3.806144,18.70524 10.03125,25.3125 -43.4537419,3.96423 -44.2796588,68.51826 1.8125,72.28125 l 109.6875,-0.3125 109.65625,0.3125 c 45.97973,-3.75382 45.29645,-68.00121 2.15625,-72.25 6.0376,-6.57126 9.71875,-15.336458 9.71875,-24.96875 0,-20.379168 -16.48767,-36.90625 -36.84375,-36.90625 -5.89179,0 -11.46689,1.382795 -16.40625,3.84375 0.14547,-1.331991 0.21875,-2.691741 0.21875,-4.0625 0,-20.379168 -16.48767,-36.90625 -36.84375,-36.90625 -13.44955,0 -25.21973,7.228205 -31.65625,18 -6.43678,-10.770714 -18.17626,-18 -31.625,-18 z"
   id="path4615"
    /><path
   style="fill:none;stroke:#808080;stroke-width:0.5;stroke-miterlimit:4;stroke-opacity:1;stroke-dasharray:none;marker-mid:none"
   d="M 151.469,31.834 C 147.029,20.773 136.211,8.826 115.948,10.467 90.139,13.266 82.094,37.943 85.995,52.664 75.715,45.72 58.236,42.666 42.978,55.704 c -19.7,19.7 -9.164,46.342 1.668,52.733 -11.935,-1.103 -30.799,6.943 -34.972,27.988 -4.44,26.13 15.528,41.363 34.972,41.363 h 215.6 c 22.484,0 34.958,-19.403 33.559,-37.703 -2.207,-23.883 -24.114,-33.047 -36.062,-31.083 9.984,-5.557 23.318,-31.66 3.041,-52.182 -16.093,-15.272 -36.612,-9.715 -43.825,-3.054 3.888,-12.757 -2.489,-39.129 -28.593,-43.301 -1.803,-0.201 -3.54,-0.31 -5.196,-0.31 -19.928,0.003 -28.888,14.534 -31.701,21.679"
   id="path3029"
    /><path
   style="opacity:0.75;fill:url(#linearGradient6010);fill-opacity:1;fill-rule:nonzero;stroke:none"
   d="m 119.375,8.28125 c -0.54257,0.00907 -1.08443,0.061256 -1.625,0.09375 -0.0414,0.00249 -0.0836,-0.00263 -0.125,0 -4.13025,0.2620214 -8.17322,1.2397992 -11.96875,2.8125 -1.31137,0.543373 -2.60189,1.151235 -3.84375,1.84375 -0.18431,0.100195 -0.37931,0.17761 -0.5625,0.28125 -0.0445,0.02582 -0.0806,0.06774 -0.125,0.09375 C 87.903904,20.960199 81.441413,35.35697 83.71875,49.21875 67.274499,40.272055 46.460516,45.722207 36.84375,61.6875 l 0.125,0 c -0.03924,0.06419 -0.08613,0.122962 -0.125,0.1875 L 95.0625,62 l 1.8125,0 109.5,0 6.1875,0 53.84375,-0.125 c -0.0389,-0.06454 -0.0858,-0.123305 -0.125,-0.1875 l 0.125,0 C 256.78948,45.722207 235.9755,40.272055 219.53125,49.21875 221.80859,35.35697 215.34609,20.960199 202.125,13.40625 202.0806,13.38024 202.0445,13.33832 202,13.3125 c -0.18319,-0.10364 -0.37819,-0.181055 -0.5625,-0.28125 -1.24186,-0.692515 -2.53238,-1.300377 -3.84375,-1.84375 -3.79553,-1.5727008 -7.8385,-2.5504786 -11.96875,-2.8125 -0.0414,-0.00263 -0.0836,0.00249 -0.125,0 -0.54057,-0.032494 -1.08243,-0.084678 -1.625,-0.09375 -6.4259,-0.1074382 -12.98275,1.4435416 -18.9375,4.8125 -5.78993,3.275711 -10.25688,7.873215 -13.3125,13.15625 -3.05562,-5.283035 -7.52257,-9.880539 -13.3125,-13.15625 -5.95475,-3.3689584 -12.5116,-4.9199382 -18.9375,-4.8125 z"
   id="path5870"
    /><path
   id="path3069"
   d="M 116.6407,14.063906 C 102.42042,14.346599 81.069704,30.898747 90.573396,56.17247 L 134.43955,157.29773 149.85234,50.933243 C 153.41916,24.503622 132.95961,12.302839 116.6407,14.063906"
   style="fill:#ffffff;stroke:#808080;stroke-width:0.5;stroke-miterlimit:4;stroke-dasharray:none;marker-start:none"
    /><path
   id="path3079"
   d="m 152.3342,48.661239 8.04312,-0.05408 c 0,0 2.99039,0.270447 4.28998,0.748715 -3.43045,1.908132 -10.55554,2.937574 -9.37574,16.883715 L 168.721,157.9402 212.37078,56.3431 c 8.92994,-22.684378 -9.81213,-41.629642 -26.43547,-42.208763 -0.77725,-0.05561 -1.55562,-0.09426 -2.36175,-0.09967 -16.10249,-0.108179 -31.43118,12.279321 -30.81053,34.734754"
   style="fill:#ffffff;stroke:#808080;stroke-width:0.52990842;stroke-miterlimit:4;stroke-dasharray:none"
   
   /><path
   id="path3081"
   d="m 207.76644,72.621684 -40.42917,93.634506 85.79403,-58.84176 c 19.77846,-13.944685 16.58934,-36.239658 5.51755,-47.260215 -4.64217,-5.186941 -13.16223,-9.193373 -22.18865,-9.193373 -10.66607,-0.002 -22.07754,5.621539 -28.69376,21.660842"
   style="fill:#ffffff;stroke:#808080;stroke-width:0.52326596;stroke-miterlimit:4;stroke-dasharray:none"
    /><path
   id="path3853"
   d="M 45.544432,58.84672 C 33.66634,69.532125 29.340677,93.742676 50.755058,107.89563 L 136.18612,166.13319 94.763069,71.839675 C 86.083568,49.58846 62.338861,44.735332 45.544432,58.84672"
   style="fill:#ffffff;stroke:#808080;stroke-width:0.52075434;stroke-miterlimit:4;stroke-dasharray:none"
    /><path
   id="path3855"
   d="M 44.381733,174.36255 H 142.35017 L 61.573548,118.03629 c -18.662907,-11.97329 -39.644884,-4.96748 -47.22206,14.90037 -6.4202666,22.74444 9.613589,41.42589 30.030245,41.42589"
   style="fill:#ffffff;stroke:#808080;stroke-width:0.52563632;stroke-miterlimit:4;stroke-dasharray:none"
    /><path
   id="path3859"
   d="m 242.24797,117.99056 -81.04557,56.50965 h 99.79056 c 20.47334,0 33.62838,-21.07215 27.78112,-40.40956 -3.91646,-12.15368 -15.50871,-21.69472 -28.96006,-21.70843 -5.66168,9.8e-4 -11.66501,1.70413 -17.56605,5.60834"
   style="fill:#ffffff;stroke:#808080;stroke-width:0.52742553;stroke-miterlimit:4;stroke-dasharray:none"
    /><path
   style="fill:#db4d0f;fill-opacity:1"
   d="M 46.569,59.862 C 35.187,70.142 31.042,93.434 51.562,107.05 L 133.425,163.078 93.732,72.362 C 85.415,50.955 62.662,46.286 46.569,59.862"
   id="path3031"
    /><path
   style="fill:#0f5187;fill-opacity:1"
   d="m 208.911,73.184 -38.564,89.628 81.836,-56.324 c 18.866,-13.348 15.824,-34.689 5.263,-45.238 -4.428,-4.965 -12.555,-8.8 -21.165,-8.8 -10.174,-0.002 -21.059,5.381 -27.37,20.734"
   id="path3037"
    /><path
   style="fill:#aa1c21;fill-opacity:1"
   d="m 117.036,15.755 c -13.308,0.27 -33.289,16.079 -24.395,40.218 l 41.052,96.585 14.424,-101.589 C 151.455,25.726 132.308,14.073 117.036,15.755"
   id="path3033"
    /><path
   style="fill:#1b1640;fill-opacity:1"
   d="m 154.524,47.094 h 7.763 c 0,0 4.145,0 4.708,1.951 -3.054,2.489 -11.368,2.8 -10.266,16.093 l 13.051,87.406 40.771,-96.839 c 8.341,-21.622 -9.165,-39.68 -24.692,-40.232 -0.726,-0.053 -1.453,-0.095 -2.206,-0.095 -13.939,0 -29.909,10.106 -29.129,31.716"
   id="path3035"
    /><path
   style="fill:#fdb918;fill-opacity:1"
   d="m 44.363,172.796 h 93.234 L 60.724,119.242 c -17.761,-11.384 -37.729,-4.723 -44.94,14.167 -6.11,21.625 9.149,39.387 28.579,39.387"
   id="path3041"
    /><path
   style="fill:#2b8941;fill-opacity:1"
   d="m 243.021,119.242 -76.856,53.554 h 94.632 c 19.415,0 31.89,-19.97 26.345,-38.296 -3.714,-11.518 -14.707,-20.56 -27.463,-20.573 -5.369,10e-4 -11.062,1.615 -16.658,5.315"
   id="path3039"
    /><path
   clip-path="url(#clipPath3856)"
   
   style="fill:#fdb918;fill-opacity:1;filter:url(#filter3850)"
   d="m 364.45602,175.05343 h 93.234 l -76.873,-53.554 c -17.761,-11.384 -37.729,-4.723 -44.94,14.167 -6.11,21.625 9.149,39.387 28.579,39.387"
   id="path3866"
   transform="translate(-320.10159,-2.25343)" /><path
   id="path3877"
   d="m 366.66202,62.119434 c -11.382,10.28 -15.527,33.572 4.993,47.187996 l 81.863,56.028 -39.693,-90.715996 c -8.317,-21.407 -31.07,-26.076 -47.163,-12.5"
   style="fill:#f06021;fill-opacity:1;filter:url(#filter3879)"
   
   clip-path="url(#clipPath3885)"
   transform="translate(-320.10015,-2.30543)" /><path
   
   style="fill:#cc2127;fill-opacity:1;filter:url(#filter3917)"
   d="m 169.12902,-172.98757 c -13.308,0.27 -33.289,16.079 -24.395,40.218 l 41.052,96.585001 14.424,-101.589001 c 3.338,-25.243 -15.809,-36.896 -31.081,-35.214"
   id="path3915"
   clip-path="url(#clipPath3923)"
   transform="translate(-52.149541,188.74957)" /><path
   
   style="fill:#27205e;fill-opacity:1;filter:url(#filter3935)"
   d="m 318.61702,-117.64857 h 7.763 c 0,0 4.145,0 4.708,1.951 -3.054,2.489 -11.368,2.8 -10.266,16.093005 l 13.051,87.405996 40.771,-96.839001 c 8.341,-21.622 -9.165,-39.68 -24.692,-40.232 -0.726,-0.053 -1.453,-0.095 -2.206,-0.095 -13.939,0 -29.909,10.106 -29.129,31.716"
   id="path3933"
   clip-path="url(#clipPath3941)"
   transform="translate(-164.11354,164.71457)" /><path
   
   style="fill:#1367ab;fill-opacity:1;filter:url(#filter3953)"
   d="m 206.78968,-116.61351 -38.564,89.628 81.836,-56.324 c 18.866,-13.348 15.824,-34.689 5.263,-45.238 -4.428,-4.965 -12.555,-8.8 -21.165,-8.8 -10.174,-0.002 -21.059,5.381 -27.37,20.734"
   id="path3951"
   clip-path="url(#clipPath3959)"
   transform="translate(2.1213199,189.84351)" /><path
   
   style="fill:#34a74f;fill-opacity:1;filter:url(#filter3971)"
   d="m 133.021,-88.757999 -76.856,53.554 h 94.632 c 19.415,0 31.89,-19.97 26.345,-38.296 -3.714,-11.518 -14.707,-20.56 -27.463,-20.573 -5.369,10e-4 -11.062,1.615 -16.658,5.315"
   id="path3969"
   clip-path="url(#clipPath3977)"
   transform="translate(110.05,207.95)" /><path
   style="opacity:0.75;fill:url(#linearGradient3154);fill-opacity:1;stroke:none"
   d="M 91.658716,47.382775 C 91.258842,41.909011 91.526307,36.435247 94.398754,30.961483 l 1.325826,0.321986 c -2.348079,4.245626 -3.626418,9.39054 -2.916816,16.206634 z"
   id="path3122"
   /><path
   style="opacity:0.75;fill:url(#linearGradient3986);fill-opacity:1;stroke:none"
   d="m 209.25,31.125 -1.375,0.15625 c 2.78035,3.746459 3.13116,11.674284 2.78125,17.46875 0.52641,0.0056 1.5,0.0625 1.5,0.0625 0.9302,-5.738929 -0.38735,-12.169542 -2.90625,-17.6875 z"
   id="path3984"
    /><path
   id="path4240"
   d="m 38.298307,80.327585 c 0.154411,-5.519412 1.269935,-11.025561 6.137202,-16.479939 l 1.866521,0.350553 c -3.948205,4.228203 -6.475733,9.383147 -6.363162,16.26029 z"
   style="opacity:0.75;fill:url(#linearGradient4242);fill-opacity:1;stroke:none" /><path
   style="opacity:0.75;fill:url(#linearGradient4246);fill-opacity:1;stroke:none"
   d="m 264.05203,80.577585 c -0.15441,-5.519412 -1.26994,-11.025561 -6.1372,-16.479939 l -1.86652,0.350553 c 3.9482,4.228203 6.47573,9.383147 6.36316,16.26029 z"
   id="path4244"
   /><path
   id="path4240-4"
   d="m 16.88815,134.40968 c 1.076901,-5.22223 3.269983,-10.22197 9.820127,-14.35323 l 2.114874,0.74137 c -5.28141,3.16428 -9.06039,7.52129 -10.047345,14.09473 z"
   style="opacity:0.75;fill:url(#linearGradient4263);fill-opacity:1;stroke:none" /><path
   style="opacity:0.75;fill:url(#linearGradient4290);fill-opacity:1;stroke:none"
   d="m 285.75,134.90968 c -1.0769,-5.22223 -3.26998,-10.22197 -9.82013,-14.35323 l -2.11487,0.74137 c 5.28141,3.16428 9.06039,7.52129 10.04734,14.09473 z"
   id="path4286"
   /><path
   style="opacity:0.75;fill:url(#linearGradient4234);fill-opacity:1;stroke:none"
   d="m 65.484464,53.935575 c -4.706635,0.116785 -9.081134,1.5258 -12.700633,3.858903 -11.269629,5.945081 -12.11562,13.974511 -11.371857,22.319894 6.407454,-1.817746 13.78353,-3.183916 25.09225,-2.716667 0.06375,0.0038 0.122013,-0.0039 0.185411,0 2.795203,0.172362 5.227264,0.489015 7.385526,0.895265 2.887157,0.543451 5.256851,1.268452 7.26192,2.130114 0.227987,0.08316 0.431805,0.17756 0.648937,0.277841 0.111039,0.05126 0.231185,0.102286 0.33992,0.154357 1.146221,0.596781 2.298534,1.610908 4.079036,3.55019 0.0964,0.105001 0.177736,0.166982 0.278116,0.277841 2.824748,2.757442 4.966605,5.40407 6.798392,8.026518 0.04732,0.06775 0.07669,0.148407 0.123607,0.216099 L 122.34375,140.375 105.904,105.33616 105.9349,105.30526 99.229214,91.104528 98.920197,90.425361 91.843688,75.421946 89.98958,71.7174 88.506295,69.000732 88.042768,68.105466 C 84.896999,59.991297 76.552431,54.148828 66.689635,53.935575 c -0.400957,-0.0087 -0.808728,-0.0098 -1.205171,0 z"
   id="path4195"
    /><path
   style="opacity:0.75;fill:url(#linearGradient3167);fill-opacity:1;fill-rule:nonzero;stroke:none"
   d="m 118.96875,16.65625 c -14.28044,0.365685 -25.909311,11.274484 -26.25,24.9375 -0.06225,2.496556 0.257088,4.922391 0.90625,7.21875 17.33345,1.193579 35.28375,2.964631 52,0.625 0.65965,-2.112887 1.0362,-4.348432 1.09375,-6.65625 l 0,-1.46875 c -0.49543,-13.522122 -12.07627,-24.337182 -26.375,-24.65625 -0.46591,-0.0104 -0.91434,-0.0118 -1.375,0 z"
   id="path3156"
    /><path
   style="opacity:0.75;fill:url(#linearGradient3981);fill-opacity:1;fill-rule:nonzero;stroke:none"
   d="M 182.50018,16.21875 C 168.12599,16.589496 156.43659,27.647872 156.09366,41.5 c -0.0476,1.921193 0.15156,3.783189 0.52443,5.59375 l 5.36768,0 c 2.72124,0.0123 4.69294,0.591762 4.84325,2 l -0.67867,0.46875 c 0.78319,0.226307 1.98882,1.3019 2.5296,1.46875 14.75195,0.550715 27.51137,-0.924882 40.90543,-2.4375 0.51203,-1.887551 0.81344,-3.842008 0.86376,-5.875 l 0,-1.53125 c -0.49868,-13.709283 -12.13731,-24.645266 -26.52991,-24.96875 -0.46897,-0.01054 -0.95537,-0.01196 -1.41905,0 z M 156.71063,47.625 c 0.0937,0.409616 0.22548,0.816471 0.33934,1.21875 -0.11825,-0.406987 -0.23669,-0.810006 -0.33934,-1.21875 z m 0.33934,1.3125 c 0.34478,1.201552 0.78051,2.373502 1.29565,3.5 -0.51905,-1.152733 -0.95139,-2.327594 -1.29565,-3.5 z"
   id="path3171"
   /><path
   id="path4236"
   d="m 237.22209,54.185575 c 4.67763,0.116785 9.02517,1.5258 12.62236,3.858903 11.20018,5.945081 12.04095,13.974511 11.30178,22.319894 -6.36797,-1.817746 -13.69859,-3.183916 -24.93761,-2.716667 -0.0634,0.0038 -0.12126,-0.0039 -0.18427,0 -2.77798,0.172362 -5.19505,0.489015 -7.34001,0.895265 -2.86937,0.543451 -5.22445,1.268452 -7.21717,2.130114 -0.22658,0.08316 -0.42914,0.17756 -0.64493,0.277841 -0.11036,0.05126 -0.22976,0.102286 -0.33783,0.154357 -1.13916,0.596781 -2.28437,1.610908 -4.0539,3.55019 -0.0958,0.105001 -0.17664,0.166982 -0.2764,0.277841 -2.80734,2.757442 -4.936,5.40407 -6.75649,8.026518 -0.047,0.06775 -0.0762,0.148407 -0.12285,0.216099 l -28.56155,47.44907 16.33843,-35.03884 -0.0307,-0.0309 6.66436,-14.200732 0.30711,-0.679167 7.0329,-15.003415 1.84268,-3.704546 1.47414,-2.716668 0.46067,-0.895266 c 3.12638,-8.114169 11.41953,-13.956638 21.22154,-14.169891 0.39848,-0.0087 0.80374,-0.0098 1.19774,0 z"
   style="opacity:0.75;fill:url(#linearGradient4238);fill-opacity:1;stroke:none" /><path
   style="opacity:0.75;fill:url(#linearGradient4284);fill-opacity:1;stroke:none"
   d="m 41.5,115.75 c -11.51258,1.02104 -17.353653,3.29879 -21.5,16.5 12.040743,-4.54444 25.136346,-5.9243 40.5,-0.5 0,0 16,7.75 17,8 1,0.25 43.25,23.75 43.25,23.75 l 5.75,3.25 -63.25,-42.25 c -6.26057,-4.89553 -12.879905,-9.47327 -21.75,-8.75 z"
   id="path4282"
   />
</svg>