<svg xmlns="http://www.w3.org/2000/svg" xmlns:xlink="http://www.w3.org/1999/xlink" width="43.7" height="12" viewBox="0 0 193 53">
<g fill="#000A3C">
	<path d="M58.3,13.9c0-8.9-9.4-13.2-20.6-13.2c-12,0-22.9,5.3-27,13.5c-1.1,2.2-1.7,4.6-1.7,7.1c0,2.1,0.5,4.2,1.7,6
		c1.7,2.5,4.8,4.2,9.3,4.2c5.5,0,9.9-3,9.9-8.3c0,0,0.1-1.5-1.6-1.5c-1.4,0-1.8,1-1.7,1.5c0.2,4.2-2.3,7.5-6.7,7.5
		c-4.9,0-7-4.2-7-8.7c0-9.2,6.9-15.2,14.1-17.9c3.4-1.3,6.9-1.9,10.5-1.9c8.1,0,14.8,3.1,14.8,11.5c0,7-5.9,12.9-12.9,13.5l0.3-0.9
		c1.4-5.1,3.2-10.8,6.1-14.9c0.2-0.2,0.5-0.7,0.8-1.1l-0.4-0.5c-0.6,0.4-1.2,0.8-1.8,1.2C31,21.6,30.6,51.2,12.6,51.2
		c-0.6,0-1.2,0-1.8-0.1c-3.7-0.6-5.7-3.1-5.7-6.6c0-0.7,0.2-1.6,0.2-2.2c0-1-0.8-1.8-1.8-1.8H3.4c-1.6,0-2.3,1.3-2.3,3.1
		c-0.1,5.2,3.7,8.3,9.7,8.8c0.7,0,1.3,0.1,2,0.1c14,0,22.6-10.6,26.3-23.5c1.8-0.2,3.7-0.6,5.5-1.1C51,26,58.3,21.6,58.3,13.9z"/>
	<path d="M191.8,17h-4.9l-1.1,2.6l-1.9,4.4h-2.3l-0.7,1.5h2.4l-2.9,6.4c-2.1,4.5-5.3,8.9-7.1,8.9
		c-0.4,0-0.7-0.2-0.7-0.6c0-0.4,0.1-0.8,0.6-1.9c0.6-1.4,1.5-3.3,2.2-4.8c1-2.1,2.7-5.3,2.7-6.9c0-1.6-1-2.9-3-2.9
		c-2.3,0-4.3,1.4-6.2,3.3l1.2-3h-4.6l-3.8,8.6c-1.5,3-4.6,8.1-6.5,8.1c-0.4,0-0.6-0.2-0.6-0.7c0-0.4,0.1-0.7,0.3-1.1
		c0.2-0.4,2.4-5.7,2.4-5.7l4.1-9.4h-5l-4,9.2c-1.2,2.8-4.4,7.6-6.4,7.6c-0.3,0-0.7-0.2-0.7-0.6v-0.2c0-0.5,0.4-1.4,0.7-2.1l2.1-4.6
		l4.3-9.4h-5l-1,2.1c-0.7,1.4-2,3.1-3.9,3.1c-0.9,0-1.4-0.4-1.6-0.7c-0.3-3.2-2.3-4.8-5.3-4.8c-4.1,0-7,2.4-9,5.4
		c-1.3,2.1-2.3,4.2-3,6.5c-1.8,2.9-3.6,5.2-5.1,5.2c-0.4,0-0.6-0.2-0.6-0.7c0-0.5,0.5-1.6,0.7-2l3.2-6.9c0.9-2.1,1.5-3.5,1.5-4.9
		c0-1.5-1-2.5-2.7-2.5c-2.3,0-4.9,1.4-6.9,3.6c0.1-0.4,0.1-0.7,0.1-1.1c0-1.6-0.8-2.5-2.5-2.5c-2.1,0-4.4,1.3-6.4,3.6l1.3-3.2h-4.5
		l-3.8,8.6c-1.8,4.1-4.7,8.1-6.4,8.1c-0.4,0-0.6-0.2-0.6-0.7c0-0.8,0.9-2.7,1.2-3.5L97.1,25c0.4-0.9-2.1-1.4-5.1-1.4
		c-3.2,0-6.4,1.6-8.8,3.6c-1.7,1.4-2.9,2.1-3.5,2.1c-0.3,0-0.5-0.2-0.5-0.4c0-0.7,1.7-2.7,1.7-4.2c0-0.7-0.4-1.2-1.3-1.2
		c-1.8,0-3.9,1.7-5.5,3.5l1.3-3.2H71l-3.8,8.6c-1.8,4.1-4.8,8.3-6.5,8.3c-0.4,0-0.6-0.2-0.6-0.7c0-0.8,0.8-2.7,1.3-3.7L66.4,25
		c0.4-0.9-2.1-1.4-5.1-1.4c-4.6,0-9,3.1-11.3,6.2c-2.6,3.4-4.4,7-4.4,10c0,2.4,1.2,3.9,3.7,3.9c2.8,0,5-2.2,6.2-3.8
		c-0.1,0.3-0.1,0.7-0.2,1c0,1.6,0.7,2.8,2.7,2.8c1.8,0,4.1-1.5,6-3.8l-1.5,3.5h4.8l4.7-10.7c1.6-3.5,3.3-5.3,3.8-5.3
		c0.2,0,0.2,0.1,0.2,0.2c0,0.4-0.7,1.4-0.7,2.3c0,0.9,0.5,1.6,1.8,1.6c1,0,2.2-0.5,3.2-1.2c-2.4,3.3-4.1,6.7-4.1,9.6
		c0,2.4,1.2,3.9,3.7,3.9c2.6,0,5-2.5,6.3-4.1c0,0.4-0.1,0.7-0.1,1.2c0,1.6,0.9,3,2.8,3c2.1,0,3.7-1.3,5.8-3.8l-1.5,3.5H98l4.5-10.2
		c2-4.4,4.6-6.8,6-6.8c0.3,0,0.6,0.2,0.7,0.5V27c0,0.5-0.2,1-0.4,1.4l-6.5,15h5.1l4.6-10.4c2-4.5,4.2-6.7,5.8-6.7
		c0.5,0,0.7,0.2,0.7,0.8c0,0.6-0.2,1.2-0.5,1.6l-4.4,9.5c-0.4,0.9-0.7,1.9-0.7,2.9c0,1.4,0.8,2.7,3,2.7c2.9,0,5.1-2.2,7.5-5.4V39
		c0.2,2.6,1.6,4.8,5.5,4.8c4.5,0,8.2-3.1,10.4-8.1c0.8-1.8,1.4-3.6,1.6-5.6c0.5,0.2,1.1,0.4,1.6,0.3c0.7,0,1.5-0.2,2.1-0.5l-0.8,1.7
		c-0.9,1.9-1.9,4-2.7,5.8c-0.5,1-0.8,2.2-0.9,3.3c0,1.8,1,3,3,3c2,0,4.8-1.9,6.7-4.6h0c-0.1,0.5-0.2,1.1-0.2,1.7
		c0,1.5,0.5,2.9,2.5,2.9c2.4,0,4.2-1.7,6-3.9l-1.5,3.5h5l4-9c2.3-5.1,4.5-8.2,6.6-8.2c0.4,0,0.7,0.2,0.7,0.6v0.1
		c0,0.9-1.2,3.2-2.3,5.5c-1,2.1-1.8,3.8-2.3,5.1c-0.5,1.1-0.8,2.2-0.9,3.4c0,1.6,0.9,2.8,2.8,2.8c2.9,0,5.8-2.8,7.4-4.9
		c-0.4,1-0.5,2.1-0.6,3.1c0,2.9,1.7,4.3,4.1,4.3c1.6,0,3.2-0.5,4.5-1.5c1.9-1.3,3.4-3.3,4.7-5.1l-0.9-0.8c-1.2,1.7-2.5,3.3-3.9,4.3
		c-0.7,0.6-1.6,0.9-2.5,1c-1,0-1.7-0.5-1.7-1.8c0-1.3,0.6-3.1,1.6-5.5c0,0,1.4-3.1,2.7-6c1.1-2.5,2.1-4.8,2.3-5.3h3.2L192,24h-3.2
		L191.8,17z M51.6,40.7c-0.7,0-1.2-0.2-1.2-1.2c0-2.4,2.1-6.7,4.6-10.2c1.8-2.4,4.1-4.2,6.5-4.2l-3.1,7C56,37.5,53.5,40.7,51.6,40.7
		z M82.3,40.7c-0.7,0-1.2-0.2-1.2-1.2c0-2.4,2.1-6.7,4.6-10.2c1.8-2.4,4.1-4.2,6.5-4.2l-3.1,7C86.7,37.6,84.3,40.7,82.3,40.7z
		 M136.9,27.1c-0.1,2.7-2.5,9.1-5.2,13c-1.1,1.6-2.1,2-2.9,2c-1.2,0-1.5-0.9-1.3-2.3c0.2-2.4,2.3-8.1,5.1-12
		c1.3-1.8,2.1-2.5,3.1-2.5C136.7,25.3,137,26.1,136.9,27.1z"/>
</g>
</svg>
