<svg xmlns="http://www.w3.org/2000/svg" xmlns:xlink="http://www.w3.org/1999/xlink" width="38" height="12" viewBox="0 0 114 36">
	<defs>
		<path id="pwob_c" d="M7.317 10.757A7.33 7.33 0 0 0 0 18.074V35h1.659V18.034c0-3.126 2.532-5.655 5.658-5.655s5.659 2.527 5.659 5.655a5.6 5.6 0 0 1-1.766 4.1c-.005.005-.544.538-2.194 1.258l-5.464 2.292 1.184 1.259 5.096-1.996c2.914-1.136 4.802-3.744 4.802-6.873a7.33 7.33 0 0 0-7.318-7.317z"></path>
		<path id="pwob_i" d="M44.313 18.48v-.429l-.014-.499-.049.287.02.784c-.284 2.858-2.747 5.085-5.527 5.085-3.08 0-5.571-2.531-5.571-5.657 0-3.056 2.491-5.657 5.571-5.657 2.836 0 5.244 2.226 5.527 5.085l.042.572v-.808c-.014-1.336-.698-3.317-1.654-4.727l-.038-.058c-1.177-1.223-2.733-1.748-4.373-1.748-3.395 0-6.852 3.082-6.852 7.317s3.456 7.317 6.852 7.317c1.632 0 3.178-.52 4.353-1.727.835-1.14 1.76-3.426 1.712-5.137z"></path>
		<path id="pwob_n" d="M54.746 14.004a3.74 3.74 0 0 1 3.378 2.044l1.384-1.062c-1.02-1.677-2.805-2.718-4.75-2.718-3.085 0-5.636 2.611-5.636 5.791s2.551 5.815 5.636 5.815c1.96 0 3.771-1.08 4.787-2.786l-1.42-1.089a3.745 3.745 0 0 1-3.378 2.044c-2.22 0-3.848-1.771-3.848-4.018s1.667-4.019 3.847-4.019z"></path>
		<path id="pwob_q" d="M54.757 23.839c-3.03 0-5.611-2.586-5.611-5.782s2.59-5.778 5.611-5.778c1.93 0 3.724 1.021 4.75 2.705l1.327-1.017a7.316 7.316 0 0 0-6.089-3.264 7.33 7.33 0 0 0-7.317 7.317 7.33 7.33 0 0 0 7.317 7.317 7.316 7.316 0 0 0 6.089-3.264l-1.291-.989c-1.02 1.713-2.887 2.754-4.785 2.754z"></path>
	</defs>
	<g transform="translate(0,.5)">
		<path d="M7.292 12.353c-3.194 0-5.658 2.505-5.658 5.679L1.641 35h1.828V18.074c0-2.327 1.748-4.018 3.848-4.018s3.848 1.691 3.848 4.018c0 1.471-.718 3.079-2.545 3.795l-5.151 2.019-.001 1.707.09.096 5.471-2.274c1.644-.717 2.196-1.255 2.201-1.261a5.687 5.687 0 0 0 1.769-4.124 5.678 5.678 0 0 0-5.707-5.679z"></path>
		<use xlink:href="#pwob_c"></use>
		<path d="M19.377 19.612h10.669l-.016-.033-1.683-1.631-9.296.015a4.4 4.4 0 0 0 .326 1.649z"></path>
		<path d="m19.094 18.023 9.218.005-1.76-1.584h-7.147a4.2 4.2 0 0 0-.311 1.58z"></path>
		<path d="M23.045 22.046a3.75 3.75 0 0 1-2.46-.889v.001l-.021-.019a3.87 3.87 0 0 1-1.073-1.526 4.248 4.248 0 0 1-.3-1.583 4.21 4.21 0 0 1 .305-1.586l.056-.126.024-.055a3.92 3.92 0 0 1 .934-1.284l.076-.069v.003a3.746 3.746 0 0 1 2.46-.903c1.658 0 2.903.997 3.426 2.433l1.866 1.609c.047-1.584-.525-3.067-1.552-4.12-.986-1.011-2.356-1.567-3.814-1.567-3.11 0-5.675 2.552-5.675 5.663s2.554 5.667 5.665 5.667c1.82 0 3.517-.885 4.57-2.326l-1.302-.903c-.334.552-1.4 1.582-3.183 1.582z"></path>
		<path d="M22.97 23.685c-3.042 0-5.655-2.532-5.655-5.658s2.626-5.664 5.655-5.658c1.413.002 2.814.554 3.806 1.571 1.037 1.063 1.572 2.515 1.534 4.088l1.735 1.585a7.83 7.83 0 0 0 .167-1.585c0-4.035-3.133-7.317-7.167-7.317a7.33 7.33 0 0 0-7.317 7.317 7.33 7.33 0 0 0 7.317 7.317c2.4 0 4.673-1.162 5.968-2.953l-1.483-1.025c-1.079 1.443-2.752 2.318-4.559 2.318z"></path>
		<path d="M42.621 12.458v-1.321h1.692v6.077l-.014-.127c-.169-1.526-.892-3.429-1.678-4.629zm.705 9.918c-.22.465-.461.849-.705 1.221v1.321h1.692V18.76l-.028.393c-.109.982-.441 2.133-.959 3.224z"></path>
		<use xlink:href="#pwob_i"></use>
		<path d="M38.791 12.32c-3.076 0-5.639 2.569-5.639 5.72s2.393 5.74 5.639 5.74c3.076 0 5.58-2.578 5.58-5.73s-2.502-5.731-5.58-5.731zm.029 9.625c-2.196 0-3.865-1.746-3.865-3.963s1.709-3.966 3.865-3.963c2.177.002 3.787 1.81 3.8 3.993.001 2.215-1.605 3.932-3.8 3.932z"></path>
		<path d="M46.091 11.137h-1.779v13.781h1.779V11.137z"></path>
		<use xlink:href="#pwob_n"></use>
		<use xlink:href="#pwob_q"></use>
		<path d="M68.524 10.704a7.33 7.33 0 0 0-7.317 7.317 7.33 7.33 0 0 0 7.317 7.317 7.33 7.33 0 0 0 7.317-7.317 7.33 7.33 0 0 0-7.317-7.317zm0 12.861c-3.005 0-5.436-2.468-5.436-5.518s2.43-5.517 5.436-5.517 5.437 2.467 5.437 5.517-2.432 5.518-5.437 5.518z"></path>
		<path d="M68.524 12.24c-3.147 0-5.72 2.539-5.72 5.808 0 3.31 2.574 5.809 5.72 5.809 3.284 0 5.723-2.613 5.723-5.809 0-3.256-2.576-5.808-5.723-5.808zm0 9.801c-2.22 0-3.848-1.771-3.848-4.018s1.667-4.018 3.848-4.018c2.22 0 3.848 1.771 3.848 4.018s-1.628 4.018-3.848 4.018z"></path>
		<use xlink:href="#pwob_n" x="29.626"></use>
		<use xlink:href="#pwob_q" x="29.626"></use>
		<path d="M95.251 3.631h-1.802v21.286h1.802V3.631z"></path>
		<path d="m98.367 17.731-.031-.039-1.187 1.248.027.039-.003.003 4.095 5.935h2.031l-4.932-7.186z"></path>
		<path d="M103.248 24.918h2.221l-5.339-7.387-1.572-.009h-.025l-.203.218.009.015 4.909 7.164zm-9.738-4.39.014.005 8.802-9.396h-2.209l-4.864 5.253-1.742 4.106v.033z"></path>
		<path d="M104.601 11.137h-2.339l-8.752 9.377v.017l1.742.472 1.859-1.95 1.458-1.532 6.032-6.384z"></path>
		<path d="M93.51 3.631h-1.728v21.286h1.728V3.631z"></path>
	</g>
</svg>