<svg xmlns="http://www.w3.org/2000/svg" width="16" height="16" viewBox="0 0 280 280">
  <g transform="translate(455.07121,-383.51972)">
    <path
       id="path3680"
       d="m -424.58619,586.97668 c 8.71861,0 14.91168,-7.66447 14.91168,-18.83175 0,-23.10321 -20.23727,-27.60526 -41.89104,-47.12879 -0.30746,39.57413 11.95789,65.96054 26.97936,65.96054"
       style="fill:#ff0000;fill-rule:evenodd;stroke:none" />
    <path
       id="path3682"
       d="m -271.30781,615.53726 -31.22886,0 0,-77.7098 -33.73245,0 0,77.7098 -31.29474,0 0,-179.30243 31.23984,0 0,72.19753 33.78735,0 0,-72.19753 31.22886,0 0,179.30243 z m 13.01203,-90.12888 c 0,-54.69443 20.21531,-89.2065 44.38364,-92.8301 -24.15735,-29.70256 -64.50013,-45.55856 -101.16439,-45.55856 -40.34277,0 -76.60076,17.5031 -101.58165,45.31699 23.83891,4.74362 31.93162,24.72834 31.93162,55.63877 l -29.14255,0 c 0,-18.2388 -3.79929,-27.68213 -14.59323,-27.68213 -4.87539,0 -8.66371,2.45966 -10.87081,6.64327 -0.31844,0.72472 -0.63687,1.40552 -0.94433,2.13024 -0.84551,2.33887 -1.29571,5.02912 -1.29571,8.04879 0,37.81723 62.10634,35.93955 62.10634,94.04895 0,22.70791 -17.40427,43.88951 -36.99368,43.88951 25.74954,28.13233 60.89848,44.96561 101.384,44.96561 39.3655,0 74.82189,-16.67955 99.73691,-43.3295 -22.98243,-5.76482 -42.95616,-38.81647 -42.95616,-91.28184"
       style="fill:#ff0000;fill-rule:evenodd;stroke:none" />
    <path
       id="path3684"
       d="m -227.25359,522.49852 c 0,-30.17472 8.77351,-60.36043 24.80521,-60.36043 19.07332,0 23.87185,46.63467 23.87185,61.39261 0,32.32692 -10.16805,61.54634 -23.87185,61.54634 -16.44896,0 -24.80521,-30.76768 -24.80521,-62.57852"
       style="fill:#ff0000;fill-rule:evenodd;stroke:none" />
  </g>
</svg>
