<svg xmlns="http://www.w3.org/2000/svg" width="24" height="12" viewBox="0 0 1000 500">
  <g transform="translate(-283.77309,-584.20271)">
    <path style="fill:#000000;fill-opacity:1;stroke:none" d="m 440.27472,782.69688 20.68597,-41.4374 c 0,0 -31.7463,-30.30887 -87.45713,-30.30887 -50.44433,0 -83.0278,29.74881 -83.0278,71.93314 0,90.8399 130.2913,57.97362 130.2913,104.94499 0,18.93246 -19.13109,26.64301 -37.83699,26.64301 -46.0781,0 -78.29248,-36.26591 -78.29248,-36.26591 l -20.3645,43.21961 c 0,0 35.12148,36.02936 96.88198,36.02936 50.3685,0 87.30026,-24.61497 87.30026,-74.07857 0,-89.03821 -130.16348,-57.07949 -130.16348,-104.79733 0,-14.24764 13.83437,-24.44037 34.39242,-24.44037 35.78574,0 67.59045,28.55834 67.59045,28.55834 z" id="path3887"/>
    <path style="fill:#000000;fill-opacity:1;stroke:none" d="m 547.11718,953.48255 0,-194.2194 -70.62524,0 0,-44.72932 190.0996,0 0,44.72932 -70.62524,0 0,194.2194 z" id="path3889"/>
    <path style="fill:#000000;fill-opacity:1;stroke:none" d="m 744.2793,713.23461 -120.65145,240.23616 50.2837,0 18.57591,-37.1886 102.99514,0 18.8334,37.1886 50.79867,0 L 744.2793,713.23461 z m -0.14713,101.22951 29.24326,57.78763 -58.67044,0 29.42718,-57.78763 z" id="path3891"/>
    <path style="fill:#000000;fill-opacity:1;stroke:none" d="m 876.11308,714.52205 0,238.94872 48.84913,0 0,-87.10446 34.13553,0 49.87906,87.10446 56.0588,0 -56.6105,-98.69141 c 24.3711,-11.75158 40.867,-33.34963 40.867,-66.98363 0,-36.78067 -25.5769,-73.27368 -85.48601,-73.27368 l -87.69301,0 z m 48.84913,44.72931 40.02096,0 c 21.98327,0 35.20223,12.44092 35.20223,29.79503 0,19.02755 -15.42924,30.23643 -35.20223,30.23643 l -40.02096,0 0,-60.03146 z" id="path3895"/>
    <path style="fill:#000000;fill-opacity:1;stroke:none" d="m 1085.6346,759.26315 0,-44.72932 197.6385,0 -122.8934,195.39649 120.0629,0 0,43.55223 -204.8132,0 122.2319,-194.2194 z" id="path3899"/>
  </g>
</svg>
