<svg xmlns="http://www.w3.org/2000/svg" viewBox="0 0 302 151" height="12" width="24">
  <g transform="translate(-231.34662,-370.29792)">
    <g transform="matrix(5.1760101,0,0,-5.1760101,333.01484,404.85127)">
      <path id="path89232" style="fill:#231f20;fill-opacity:1;fill-rule:nonzero;stroke:none" d="m 0,0 -19.296,0 -0.153,-4.352 0.989,0 c -0.107,2.187 1.916,2.816 1.916,2.816 2.273,0.612 4.477,0.425 4.477,0.425 l 0,-11.606 c 0,0 -0.055,-1.959 -1.634,-2.065 l -1.599,-0.188 0,-0.963 11.3,0 0,0.954 c 0,0 -1.671,0.081 -2.334,0.566 -0.394,0.289 -0.781,0.657 -0.837,1.751 -0.044,0.976 0.015,9.695 0.031,11.557 3.589,0.104 4.813,-0.723 4.813,-0.723 1.443,-0.707 1.615,-2.524 1.615,-2.524 l 0.984,0 L 0,0 Z" />
    </g>
    <g transform="matrix(5.1760101,0,0,-5.1760101,410.77152,473.87332)">
      <path id="path89236" style="fill:#231f20;fill-opacity:1;fill-rule:nonzero;stroke:none" d="m 0,0 c -0.806,-2.284 -6.106,-2.066 -6.106,-0.334 l 0,5.723 C -3.484,5.467 -1.793,4.668 -1.793,4.668 1.4,3.264 0,0 0,0 m -6.106,12.42 c 2.07,0.037 3.331,-0.14 3.331,-0.14 2.176,-0.419 2.387,-2.42 2.387,-2.42 C -0.141,6.736 -3.159,6.386 -3.159,6.386 -3.458,6.308 -5.282,6.267 -6.106,6.253 l 0,6.167 z M 5.398,1.933 C 5.295,5.86 0.487,5.86 0.487,5.86 c 4.386,0.632 4.128,3.545 4.128,3.545 -0.011,4.242 -6.523,3.93 -6.523,3.93 l -12.141,0 0.012,-1.019 c 1.299,0 2.247,-0.317 2.247,-0.317 0.982,-0.315 0.972,-1.283 0.972,-1.283 l 0,-10.598 c -0.175,-1.425 -1.639,-1.52 -1.639,-1.52 l -1.592,-0.246 0,-0.95 11.202,0 3.218,0.108 c 5.426,0.562 5.027,4.423 5.027,4.423" />
    </g>
    <g transform="matrix(5.1760101,0,0,-5.1760101,525.49306,404.44708)">
      <path id="path89240" style="fill:#231f20;fill-opacity:1;fill-rule:nonzero;stroke:none" d="m 0,0 -0.947,-0.041 c 0,0 -0.033,-1.267 -1.614,-0.915 0,0 -3.081,1.224 -5.508,1.188 -2.532,-0.035 -3.93,-0.42 -5.229,-1.331 0,0 -3.474,-2.475 -1.265,-5.753 0,0 0.739,-1.141 2.915,-1.897 l 4.21,-1.403 2.981,-0.982 c 0,0 2.069,-0.599 1.72,-2.317 0,0 -0.048,-1.941 -4.391,-1.757 0,0 -3.907,0.107 -6.135,2.354 0,0 -1.091,0.948 -1.339,2.352 l -0.961,0 0.427,-5.499 1.054,0 c 0,0 0.222,1.322 0.96,1.114 0,0 3.272,-1.24 5.473,-1.299 0,0 4.771,-0.353 7.124,1.612 0,0 2.565,1.58 1.653,4.702 0,0 -0.287,1.405 -2.286,2.352 0,0 -2.208,1.085 -4.596,1.718 l -4.388,1.297 c 0,0 -2.079,0.659 -0.953,2.281 0,0 1.284,2.109 5.867,0.983 0,0 4.001,-0.738 4.597,-3.578 l 0.949,0 L 0,0 Z" />
    </g>
  </g>
</svg>