<svg xmlns="http://www.w3.org/2000/svg" xmlns:xlink="http://www.w3.org/1999/xlink" viewBox="0 0 160 160" width="12" height="12">
<style type="text/css">
	.st1{fill:url(#SVGID_1_);}
	.st2{fill:url(#SVGID_2_);}
	.st3{fill:url(#SVGID_3_);}
	.st4{fill:url(#SVGID_4_);}
</style>
<g transform="translate(0,-10)">
<linearGradient id="SVGID_1_" gradientUnits="userSpaceOnUse" x1="87.691" y1="152.6848" x2="87.691" y2="31.9817" gradientTransform="matrix(1 0 0 -1 0 182)">
	<stop  offset="0" style="stop-color:#53C4FE"/>
	<stop  offset="1" style="stop-color:#0D84F4"/>
</linearGradient>
<path class="st1" d="M138.2,101.6c8.6-9,7.6-17.3-0.1-24.4C126.8,66.6,113.4,58,99.4,49.9c-13.6-7.9-28-14.4-42.8-19.7
	c-8.4-2.9-17.5,1.4-20.5,9.8c-0.3,0.8-0.5,1.6-0.6,2.4c-5.8,31.2-5.8,63.2-0.1,94.4c1.6,8.7,10,14.5,18.7,12.9
	c0.8-0.2,1.7-0.4,2.5-0.7c15.1-5.4,29.6-12.2,43.4-20.3C113.8,120.8,127.5,112.7,138.2,101.6z"/>
<linearGradient id="SVGID_2_" gradientUnits="userSpaceOnUse" x1="23.4862" y1="139.7154" x2="23.4862" y2="44.7524" gradientTransform="matrix(1 0 0 -1 0 182)">
	<stop  offset="0" style="stop-color:#F9B93B"/>
	<stop  offset="1" style="stop-color:#FA7535"/>
</linearGradient>
<path class="st2" d="M35.4,43.5c-0.4-0.1-0.8-0.2-1.2-0.4c-8.5-2.6-16,0.4-19.4,9.6c-4.2,11.5-4,24.4-4,37c0,12.6-0.1,25.3,3.9,36.8
	c3.7,10.6,10.9,12.2,19.4,9.6c0.4-0.1,1.5-0.6,1.8-0.7c-2.7-14.9-4.8-29.9-4.8-45.6C31.3,74.3,32.6,58.8,35.4,43.5z"/>
<linearGradient id="SVGID_3_" gradientUnits="userSpaceOnUse" x1="73.1928" y1="138.631" x2="73.1928" y2="46.056" gradientTransform="matrix(1 0 0 -1 0 182)">
	<stop  offset="0" style="stop-color:#AEF922"/>
	<stop  offset="1" style="stop-color:#62BB0D"/>
</linearGradient>
<path class="st3" d="M35.3,43.4c-5.5,30.6-5.6,62-0.1,92.6c13.4-4.1,26.5-9.3,39.1-15.6c12.7-6.3,24.9-13,35.3-21.3
	c7.8-6.2,7-13.4-0.1-19.2c-10.5-8.5-22.9-15.1-35.9-21.4C61.4,52.4,48.5,47.4,35.3,43.4z"/>
<linearGradient id="SVGID_4_" gradientUnits="userSpaceOnUse" x1="69.6424" y1="113.9929" x2="69.6424" y2="70.7044" gradientTransform="matrix(1 0 0 -1 0 182)">
	<stop  offset="0" style="stop-color:#FFFFFF"/>
	<stop  offset="0.6" style="stop-color:#FFFFFF"/>
	<stop  offset="1" style="stop-color:#E5F6D2"/>
</linearGradient>
<path class="st4" d="M49,70.5c0,0-1.3,1.9-1.3,19.1s1.3,19.3,1.3,19.3c0.4,2.1,1.4,2.8,3.7,2.3c0,0,3.9-0.6,19.4-8.4
	s18.1-10.8,18.1-10.8c1.7-1.7,2.1-2.8,0-4.6c0,0-4.2-3.9-18.1-11c-13.7-7-19.4-8.2-19.4-8.2C50.7,67.6,49.5,68.2,49,70.5z"/>
</g>
</svg>
