<svg xmlns="http://www.w3.org/2000/svg" xmlns:xlink="http://www.w3.org/1999/xlink" viewBox="0 0 120 120" width="12" height="12">
<path transform="translate(-5,-90)" fill="#107C10" d="M38.1512,99.5877c1.5979-0.0779,4.0792,0.065,5.5471,0.3118
	c4.1701,0.7275,11.7178,3.3906,16.6154,5.8849c2.4553,1.2471,4.6118,2.2994,4.7677,2.3254c0.1689,0.039,2.4553-0.9873,5.0924-2.2734
	c8.7429-4.261,16.8753-6.5215,22.4614-6.2356l2.806,0.1429l-1.2211-0.7535c-4.1181-2.5332-11.4321-5.2613-17.6417-6.5734
	c-5.755-1.2212-16.7324-1.2082-22.5783,0.026c-5.1964,1.0912-9.0287,2.3644-13.6145,4.5339
	C34.8645,99.5877,34.7086,99.7566,38.1512,99.5877z M47.024,126.3491l2.2864-2.8191l-4.1961-3.7933
	c-7.184-6.5085-11.8088-9.7042-16.1478-11.1722c-3.5725-1.2082-3.8323-1.1302-6.7683,1.9227
	c-6.8852,7.171-12.6012,18.8109-14.1991,28.8789c-1.2861,8.0804-1.442,10.3278-1.0003,14.2641
	c1.3381,11.9127,4.0922,20.162,9.5354,28.5281c2.2344,3.4296,2.845,4.0792,2.1825,2.3254
	c-0.9873-2.5982-0.0649-8.8598,2.2344-15.0825C25.1733,157.9431,36.3844,139.418,47.024,126.3491z M112.8622,115.8654
	c-3.0009-4.2221-6.7163-8.0804-7.7686-8.0804c-1.7148,0-5.69,1.5329-8.4831,3.2737c-3.5335,2.1955-6.8072,4.7937-11.523,9.1327
	l-3.6115,3.3257l3.3387,4.1961c10.6006,13.3417,22.1496,32.9841,25.5922,43.5327c1.5979,4.8716,2.2734,9.7043,1.7408,12.3284
	c-0.4027,2.0136-0.4027,2.0136,0.3248,1.1042c1.429-1.8187,4.6767-7.3919,5.9888-10.2629c1.7408-3.8453,3.5335-9.4964,4.378-13.8483
	c1.0263-5.3003,0.9353-16.6934-0.1819-22.0197C120.9296,130.3113,117.513,122.3868,112.8622,115.8654z M65.5362,138.8464
	c-1.1302-0.2468-11.6139,9.1327-19.1487,17.1351c-13.2508,14.0822-21.0064,26.4496-21.0064,33.5037
	c0,3.5205,1.481,5.2743,8.0414,9.5613c7.8336,5.1185,16.9402,8.3532,25.93,9.2106c7.5217,0.7275,16.6674-0.2079,23.6305-2.4163
	c8.4441-2.6631,19.9411-9.6133,21.7988-13.1728c2.4423-4.6767-2.3644-15.1735-12.8091-28.0085
	C85.3733,156.566,67.7446,139.34,65.5362,138.8464z"/>
</svg>