<svg xmlns="http://www.w3.org/2000/svg" xmlns:xlink="http://www.w3.org/1999/xlink" width="50" height="12" viewBox="0 0 100 24">
  <title>Youku logo</title>
  <path
     d="m 43.90654,0.98500528 c -2.300145,0.0154 -2.315583,2.13034002 -2.315583,2.13034002 l 0.04631,9.7871997 c 0,0.0772 -0.04631,9.23146 9.33952,9.21603 9.354962,-0.0309 9.385837,-9.13884 9.385837,-9.13884 l 0.04631,-9.8489497 c 0,0 0,-2.13034 -2.34646,-2.13034 -2.315582,-0.0154 -2.315582,2.09946 -2.315582,2.09946 l -0.03087,9.8643897 c 0.06174,0.0618 0.07719,4.58486 -4.739232,4.55398 -4.800975,0.0309 -4.785538,-4.66204 -4.785538,-4.66204 0,0 0.04631,-9.7254497 0.04631,-9.7254497 0,0 -0.03087,-2.13034 -2.331022,-2.14578002 z m -12.982709,0.0309 c -0.01541,0 -0.03088,0 -0.06176,0 v 0 c -0.833611,0.0154 -1.667227,0.1235 -2.46996,0.35506 -1.574597,0.46312 -3.087442,1.25041 -4.198923,2.45452 -2.022279,1.85247 -2.855889,4.6466 -2.794143,7.3018097 -0.07718,2.19208 0.169808,4.5231 1.404789,6.42188 1.528286,2.63977 4.476795,4.29155 7.517934,4.56942 0.185243,0.0154 0.370494,0.0154 0.540303,0.0154 v 0 c 0.03088,0 0.04629,0 0.06176,0 0.0154,0 0.03088,0 0.04629,0 v 0 c 0.185251,0 0.370495,0 0.555745,-0.0154 3.041132,-0.27787 5.989643,-1.92965 7.517928,-4.56942 1.234977,-1.89878 1.466537,-4.2298 1.404788,-6.42188 0.06174,-2.6552097 -0.787298,-5.4493397 -2.79414,-7.3018097 -1.111477,-1.20411 -2.624327,-1.9914 -4.198926,-2.45452 -0.802733,-0.23156 -1.636344,-0.33962 -2.485395,-0.35506 v 0 c -0.01541,0 -0.03088,0 -0.04629,0 z m -27.2003937,0 c -0.9725487,0 -1.9450913,0.61749 -2.3001502,1.55916 -0.3550528,0.92624 0.015405,2.00684 0.7255526,2.68608 2.2383978,2.28471 4.5694185,4.5076698 6.7769396,6.8232497 l 0.030882,7.62599 c 0,0 -0.030882,2.39277 2.4082067,2.43909 2.392772,-0.0309 2.423649,-2.42365 2.423649,-2.42365 l 0.04629,-7.84211 6.854127,-6.8232497 c 0.756429,-0.63293 0.787297,-1.72897 0.509433,-2.59346 -0.524868,-1.43566 -2.608893,-1.94509002 -3.720374,-0.86448 -0.03088,0.0463 -6.066835,6.03595 -6.066835,6.03595 l -6.4373258,-6.19032 c -0.3859284,-0.29331 -0.8181744,-0.43225 -1.2504143,-0.43225 z m 27.2003937,4.69292 c 0.432247,0 0.864486,0.0618 1.281291,0.20068 1.265856,0.38593 2.377335,1.29673 2.948513,2.4854 0.679236,1.4047898 0.401366,4.4613597 0.416802,4.4922297 0.04631,1.82159 -1.234976,3.45794 -2.886757,4.18349 -0.555745,0.23156 -1.157793,0.33962 -1.759849,0.33962 -0.602048,0 -1.204103,-0.10806 -1.775282,-0.33962 -1.636343,-0.72555 -2.917633,-2.3619 -2.886757,-4.18349 0.03088,-0.0309 -0.246995,-3.0874399 0.43224,-4.4922297 0.555744,-1.18867 1.667218,-2.09947 2.933074,-2.4854 0.43224,-0.13893 0.864486,-0.20068 1.296725,-0.20068 z"
     style="fill:#fd517e;fill-opacity:1;fill-rule:nonzero;stroke:none;stroke-width:0.19296679" />
  <path
     d="m 76.911332,1.0158853 c -0.493992,0.0154 -0.987983,0.20068 -1.358477,0.60205 -2.825012,2.63976 -5.511086,5.4339 -8.274349,8.1199798 -0.370495,0.3241799 -0.586616,0.7718599 -0.7873,1.2040999 l -0.01544,-7.6568597 c 0,0 0.03088,-2.26927 -2.469956,-2.25384 -2.485392,-0.0154 -2.469956,2.26928 -2.469956,2.26928 l 0.01544,16.7802597 c 0,0 0.03087,2.06859 2.454518,2.03772 2.361896,0.0154 2.439082,-2.02228 2.439082,-2.02228 0,0 0.108059,-7.71861 0.06175,-7.71861 0.355055,0.61748 0.864483,1.12691 1.404787,1.60547 2.099462,2.06859 4.168051,4.16805 6.267516,6.2212 0.602048,0.58661 1.142351,1.26585 1.883339,1.68266 1.497411,0.87992 3.643187,-0.63293 3.334438,-2.33102 0,-1.06517 -0.926231,-1.72897 -1.605466,-2.40821 -1.790724,-1.79072 -3.627753,-3.566 -5.41847,-5.38759 0,-0.10806 0,-0.32418 0,-0.43225 2.037713,-2.0068397 4.075427,-4.0136697 6.097705,-6.0359497 0.555745,-0.47856 1.003418,-1.11148 0.941673,-1.88334 0.138939,-1.37392 -1.219539,-2.42365002 -2.500829,-2.39277 z m 5.680902,0.0463 c -2.300147,0.0154 -2.315583,2.13033 -2.315583,2.13033 l 0.04625,9.7563297 c 0,0.0772 -0.04625,9.20059 9.354946,9.20059 9.339531,-0.0309 9.370413,-9.1234 9.370413,-9.1234 l 0.06176,-9.8335197 c 0,0 0,-2.1149 -2.3619,-2.1149 -2.315583,-0.0154 -2.315583,2.09947 -2.315583,2.09947 l -0.01541,9.8335097 c 0.04625,0.0617 0.06176,4.56942 -4.754673,4.53855 -4.800969,0.0309 -4.770098,-4.63117 -4.770098,-4.63117 0,0 0.03083,-9.7254597 0.03083,-9.7254597 0,0 -0.01541,-2.1149 -2.331019,-2.13033 z"
     style="fill:#3faefb;fill-opacity:1;fill-rule:nonzero;stroke:none;stroke-width:0.19296679" />
</svg>