<svg xmlns="http://www.w3.org/2000/svg" xmlns:xlink="http://www.w3.org/1999/xlink" width="17" height="12" viewBox="0 0 123.25 87">
<g transform="translate(0.9,1)">
	<path fill="#ff0000" d="M118.9,13.3c-1.4-5.2-5.5-9.3-10.7-10.7C98.7,0,60.7,0,60.7,0s-38,0-47.5,2.5C8.1,3.9,3.9,8.1,2.5,13.3
		C0,22.8,0,42.5,0,42.5s0,19.8,2.5,29.2c1.4,5.2,5.5,9.3,10.7,10.7C22.8,85,60.7,85,60.7,85s38,0,47.5-2.5
		c5.2-1.4,9.3-5.5,10.7-10.7c2.5-9.5,2.5-29.2,2.5-29.2S121.5,22.8,118.9,13.3z"/>
	<polygon fill="#ffffff" points="48.6,60.7 80.2,42.5 48.6,24.3"/>
</g>
</svg>